<?xml version="1.0" encoding="UTF-8" standalone="no"?>
<!-- Created with Inkscape (http://www.inkscape.org/) -->

<svg
   width="5in"
   height="5in"
   viewBox="0 0 5 5"
   version="1.1"
   id="svg1"
   inkscape:version="1.4.3 (0d15f75, 2025-12-25)"
   sodipodi:docname="share.svg"
   xmlns:inkscape="http://www.inkscape.org/namespaces/inkscape"
   xmlns:sodipodi="http://sodipodi.sourceforge.net/DTD/sodipodi-0.dtd"
   xmlns="http://www.w3.org/2000/svg"
   xmlns:svg="http://www.w3.org/2000/svg"
   xmlns:rdf="http://www.w3.org/1999/02/22-rdf-syntax-ns#"
   xmlns:cc="http://creativecommons.org/ns#">
  <sodipodi:namedview
     id="namedview1"
     pagecolor="#505050"
     bordercolor="#ffffff"
     borderopacity="1"
     inkscape:showpageshadow="0"
     inkscape:pageopacity="0"
     inkscape:pagecheckerboard="1"
     inkscape:deskcolor="#505050"
     inkscape:document-units="mm"
     inkscape:zoom="1.2109204"
     inkscape:cx="291.5138"
     inkscape:cy="192.41563"
     inkscape:window-width="1920"
     inkscape:window-height="1009"
     inkscape:window-x="2552"
     inkscape:window-y="-8"
     inkscape:window-maximized="1"
     inkscape:current-layer="layer1" />
  <defs
     id="defs1" />
  <g
     inkscape:label="Layer 1"
     inkscape:groupmode="layer"
     id="layer1"
     transform="translate(-0.1124132,0.22739612)">
    <path
       style="fill:#ffffff;stroke:#000000;stroke-width:0.314961;stroke-linecap:round;stroke-linejoin:round;stroke-dashoffset:696.375;stroke-opacity:1;paint-order:stroke fill markers"
       d="M 2.0890215,1.7960594 C 1.6673544,1.1651842 0.96147655,1.9366682 1.1633293,2.340374 1.3383291,2.6903736 1.7186752,2.7823857 2.0079891,2.6129352 2.0636678,2.5803243 2.1064605,2.4534705 2.1687608,2.5033108 2.3700856,2.6643706 2.7234279,2.9928473 2.8710471,3.1995143 2.9929207,3.3701373 2.9472148,3.5202535 3.1820042,3.6208776 3.452242,3.7366937 3.6879258,3.6221996 3.7951893,3.371918 3.8401987,3.2668961 3.8194427,3.0168712 3.7078173,2.9375249 3.4480854,2.7529006 3.4194808,3.0214958 3.0884474,2.867335 2.8977908,2.7785471 2.5430969,2.4785279 2.4903117,2.4460991 2.4058707,2.3942224 2.0584092,2.2159874 2.2171478,2.1446306 2.4458736,2.0418128 2.9554333,1.9267062 3.4285367,1.7075062 3.5265872,1.6620771 4.0628098,1.7155952 4.0907235,1.4905212 4.1279999,1.1899526 3.9997576,0.83047644 3.5818092,0.88433587 3.3712454,0.91147042 3.220058,1.0881481 3.1648228,1.3166874 3.0748404,1.6889957 2.3553427,1.7647398 2.0890215,1.7960594 Z"
       id="path1"
       sodipodi:nodetypes="cssssssssssssssc" />
    <path
       style="fill:#000000;fill-opacity:1;stroke:none;stroke-width:0.314961;stroke-linecap:round;stroke-linejoin:round;stroke-dashoffset:696.375;stroke-opacity:1;paint-order:stroke fill markers"
       id="path2"
       sodipodi:type="arc"
       sodipodi:cx="1.6605844"
       sodipodi:cy="2.1472027"
       sodipodi:rx="0.31630179"
       sodipodi:ry="0.28588817"
       sodipodi:start="0"
       sodipodi:end="6.2831122"
       sodipodi:arc-type="slice"
       d="M 1.9768862,2.1472027 A 0.31630179,0.28588817 0 0 1 1.6605902,2.4330909 0.31630179,0.28588817 0 0 1 1.3442827,2.1472132 0.31630179,0.28588817 0 0 1 1.6605671,1.8613146 0.31630179,0.28588817 0 0 1 1.9768862,2.1471818 l -0.3163018,2.09e-5 z" />
    <path
       style="fill:#000000;fill-opacity:1;stroke:none;stroke-width:0.314961;stroke-linecap:round;stroke-linejoin:round;stroke-dashoffset:696.375;stroke-opacity:1;paint-order:stroke fill markers"
       id="path2-8"
       sodipodi:type="arc"
       sodipodi:cx="3.6490269"
       sodipodi:cy="1.290146"
       sodipodi:rx="0.31630179"
       sodipodi:ry="0.28588817"
       sodipodi:start="0"
       sodipodi:end="6.2831122"
       sodipodi:arc-type="slice"
       d="M 3.9653287,1.290146 A 0.31630179,0.28588817 0 0 1 3.6490327,1.5760342 0.31630179,0.28588817 0 0 1 3.3327251,1.2901564 0.31630179,0.28588817 0 0 1 3.6490095,1.0042578 0.31630179,0.28588817 0 0 1 3.9653287,1.2901251 l -0.3163018,2.09e-5 z" />
    <path
       style="fill:#000000;fill-opacity:1;stroke:none;stroke-width:0.314961;stroke-linecap:round;stroke-linejoin:round;stroke-dashoffset:696.375;stroke-opacity:1;paint-order:stroke fill markers"
       id="path2-8-1"
       sodipodi:type="arc"
       sodipodi:cx="3.4114203"
       sodipodi:cy="3.2957726"
       sodipodi:rx="0.31630179"
       sodipodi:ry="0.28588817"
       sodipodi:start="0"
       sodipodi:end="6.2831122"
       sodipodi:arc-type="slice"
       d="M 3.7277221,3.2957726 A 0.31630179,0.28588817 0 0 1 3.4114261,3.5816607 0.31630179,0.28588817 0 0 1 3.0951186,3.295783 0.31630179,0.28588817 0 0 1 3.411403,3.0098844 0.31630179,0.28588817 0 0 1 3.7277221,3.2957517 l -0.3163018,2.09e-5 z" />
    <path
       style="display:none;fill:none;fill-opacity:1;stroke:#000000;stroke-width:0.0708661;stroke-linecap:round;stroke-linejoin:round;stroke-dasharray:none;stroke-dashoffset:696.375;stroke-opacity:1;paint-order:stroke fill markers"
       d="M 1.8309008,2.025548 C 2.4598364,1.9365711 3.0538243,1.8245228 3.4914853,1.3868618 M 1.8232981,2.1951047 c 0.5093235,0.020668 1.0956595,1.0029205 1.60584,1.0705594"
       id="path3"
       sodipodi:nodetypes="cccc" />
  </g>
  <metadata
     id="metadata3">
    <rdf:RDF>
      <cc:License
         rdf:about="http://creativecommons.org/licenses/by/4.0/">
        <cc:permits
           rdf:resource="http://creativecommons.org/ns#Reproduction" />
        <cc:permits
           rdf:resource="http://creativecommons.org/ns#Distribution" />
        <cc:requires
           rdf:resource="http://creativecommons.org/ns#Notice" />
        <cc:requires
           rdf:resource="http://creativecommons.org/ns#Attribution" />
        <cc:permits
           rdf:resource="http://creativecommons.org/ns#DerivativeWorks" />
      </cc:License>
      <cc:Work
         rdf:about="">
        <cc:license
           rdf:resource="http://creativecommons.org/licenses/by/4.0/" />
      </cc:Work>
    </rdf:RDF>
  </metadata>
</svg>
